  <svg
      width="100%"
      viewBox="0 0 210 296.99999"
      class="bamboo-left"
      version="1.1"
      id="svg1"
      xmlns="http://www.w3.org/2000/svg"
      xmlns:svg="http://www.w3.org/2000/svg">
    <defs
        id="defs1" />
    <g
        id="layer1">
      <rect
          style="fill:#000000;stroke-width:0.264583"
          id="rect1"
          width="8.9630928"
          height="52.756264"
          x="23.730055"
          y="77.015862" />
      <rect
          style="fill:#000000;stroke-width:0.264583"
          id="rect2"
          width="8.9630928"
          height="52.756264"
          x="23.655729"
          y="130.78079" />
      <rect
          style="fill:#000000;stroke-width:0.264583"
          id="rect3"
          width="8.9630928"
          height="52.756264"
          x="23.641527"
          y="184.42485" />
      <rect
          style="fill:#000000;stroke-width:0.264583"
          id="rect4"
          width="8.9630928"
          height="52.756264"
          x="23.670902"
          y="237.95512" />
      <path
          id="path79"
          style="fill:#000000;stroke-width:0.0873082"
          d="m 62.579696,112.90551 c 0,0 -6.610582,-0.62593 -12.083931,3.63112 -0.02536,0.009 -0.05013,0.017 -0.07518,0.0266 6.552209,2.56664 12.688739,0.22126 12.688739,0.22126 0,0 -2.352863,-0.99824 -5.694849,-1.19503 3.18404,-1.09094 5.16519,-2.68398 5.16519,-2.68398 z" />
      <path
          id="path80"
          style="fill:#000000;stroke-width:0.0873082"
          d="m 58.1974,108.51434 c 0,0 -6.1067,2.60765 -8.881919,8.96204 -0.01799,0.02 -0.03592,0.0388 -0.05335,0.0592 6.982399,-0.87475 11.253369,-5.86641 11.253369,-5.86641 0,0 -2.543917,0.24685 -5.574014,1.67027 2.276247,-2.47931 3.255867,-4.82518 3.255867,-4.82518 z" />
      <path
          id="path40"
          style="stroke-width:0.0398326"
          d="m 48.539007,106.83309 -3.881234,5.7783 1.209401,0.9605 3.881237,-5.77829 z m -3.965246,5.88113 -3.881697,5.77842 1.209864,0.96038 3.881235,-5.7783 z m 9.340847,-0.52467 -5.229203,4.52869 1.053091,1.13752 5.228745,-4.52855 z m -13.28987,6.39861 -3.880981,5.77881 1.209864,0.96038 3.880979,-5.77882 z m 7.952116,-1.79307 -5.22921,4.52868 1.053351,1.13803 5.228489,-4.52906 z m -5.318502,4.60334 -5.229218,4.52866 1.053102,1.13753 5.228744,-4.52855 z m -6.567606,3.0562 -3.88097,5.77883 0.132982,0.1057 -0.215535,0.18692 1.052629,1.13765 5.229208,-4.52867 -1.053093,-1.13754 -1.068336,0.92516 1.012525,-1.50752 z" />
      <rect
          style="fill:#000000;stroke-width:0.264583"
          id="rect6"
          width="8.9630928"
          height="52.756264"
          x="55.552227"
          y="126.9799"
          transform="rotate(3.8747759)" />
      <path
          id="path39"
          style="stroke-width:0.0398326"
          d="m 53.215804,212.07033 -4.962107,6.20131 1.053433,0.8431 4.962106,-6.20131 z m -5.065544,6.31317 -4.962597,6.20148 1.053923,0.84293 4.962107,-6.20131 z m 9.553852,-1.47286 -6.104278,5.08161 0.863531,1.03687 6.103788,-5.08143 z m -14.601682,7.77717 -4.961941,6.2018 1.053924,0.84293 4.96194,-6.20181 z m 8.373751,-2.60732 -6.104283,5.0816 0.863703,1.03736 6.10362,-5.08192 z m -6.208041,5.16569 -6.104287,5.08159 0.863539,1.03688 6.103788,-5.08143 z m -7.196982,3.73691 -4.961934,6.20181 0.115816,0.0928 -0.251649,0.20971 0.863041,1.03704 6.104279,-5.0816 -0.863532,-1.03687 -1.247102,1.03811 1.294515,-1.61786 z" />
      <path
          id="path50"
          style="fill:#000000;stroke-width:0.0917074"
          d="m 55.342696,203.82723 c 0,0 -4.494095,4.95057 -3.167818,11.29295 0.0302,-0.0354 0.05748,-0.0712 0.08716,-0.10667 -0.03039,0.064 -0.06108,0.12803 -0.09047,0.1928 7.341643,-3.02855 9.80166,-8.71998 9.80166,-8.71998 0,0 -2.04093,0.78525 -4.352435,2.44017 1.145998,-2.33212 1.312363,-4.12883 1.312363,-4.12883 0,0 -1.819251,1.21246 -3.565172,3.36984 0.388084,-2.52208 -0.02529,-4.34028 -0.02529,-4.34028 z" />
      <path
          id="path51"
          style="fill:#000000;stroke-width:0.0917074"
          d="m 62.971692,209.27112 c 0,0 -6.679533,0.29812 -10.246447,5.70754 0.0464,-0.004 0.09103,-0.009 0.137108,-0.0133 -0.06683,0.0235 -0.133895,0.0469 -0.200568,0.0716 7.321525,3.07687 13.093865,0.81321 13.093865,0.81321 0,0 -1.99512,-0.89527 -4.798073,-1.3699 2.46248,-0.82963 3.85483,-1.97732 3.85483,-1.97732 0,0 -2.142144,-0.43698 -4.90325,-0.15623 2.063353,-1.50135 3.062534,-3.07564 3.062534,-3.07564 z" />
      <path
          id="path53"
          style="fill:#000000;stroke-width:0.0917074"
          d="m 59.379872,209.4701 c 0,0 -5.19645,4.20738 -4.852818,10.67782 0.03489,-0.0308 0.06787,-0.0613 0.102357,-0.0921 -0.03985,0.0586 -0.07984,0.11726 -0.118846,0.17672 7.717606,-1.87361 11.016734,-7.12336 11.016734,-7.12336 0,0 -2.136817,0.46483 -4.673643,1.74794 1.488228,-2.1301 1.92662,-3.88042 1.92662,-3.88042 0,0 -1.982855,0.92086 -4.037338,2.78677 0.768128,-2.4334 0.636848,-4.29337 0.636848,-4.29337 z" />
      <rect
          style="fill:#000000;stroke-width:0.264583"
          id="rect7"
          width="8.9630928"
          height="52.756264"
          x="51.834919"
          y="181.51723"
          transform="rotate(2.7715322)" />
      <path
          id="path69"
          style="fill:#000000;stroke-width:0.0873082"
          d="m 62.378886,223.59672 c 0,0 -6.327332,-2.01407 -12.579198,0.98495 -0.0266,0.003 -0.05263,0.006 -0.07911,0.01 5.85858,3.89822 12.352988,2.90804 12.352988,2.90804 0,0 -2.087537,-1.47466 -5.311705,-2.37595 3.342997,-0.39063 5.617002,-1.52713 5.617002,-1.52713 z" />
      <rect
          style="fill:#000000;stroke-width:0.264583"
          id="rect8"
          width="8.9630928"
          height="52.756264"
          x="51.864292"
          y="235.0475"
          transform="rotate(2.7715322)" />
      <path
          id="rect9"
          style="fill:#000000;stroke-width:0.043785"
          d="m 77.598331,216.23242 -6.870794,5.29831 1.133473,1.0108 6.870794,-5.29831 z m 4.640189,5.54088 -8.068245,3.99855 0.876778,1.17034 8.068245,-3.99855 z m -11.651719,-0.14993 -6.871418,5.29827 1.133475,1.01081 6.871416,-5.29828 z m 3.422002,4.21527 -8.068244,3.99854 0.876156,1.1703 8.068857,-3.99851 z m -10.410369,1.17057 -6.871401,5.29777 1.133466,1.01081 6.8714,-5.29778 z m 2.204996,2.89333 -8.068244,3.99855 0.876139,1.17081 8.068243,-3.99855 z m -9.173285,2.48573 -6.870776,5.29779 0.124573,0.11113 -0.332874,0.16518 0.876769,1.17032 8.068244,-3.99855 -0.87677,-1.17032 -1.646124,0.81585 1.790434,-1.38062 z" />
      <path
          id="rect17"
          style="fill:#000000;stroke-width:0.0404649"
          d="m 17.389825,161.65522 6.235897,5.15472 -0.903414,1.02682 -6.235896,-5.15473 z m 6.362826,5.24464 6.235896,5.15472 -0.903949,1.02682 -6.235896,-5.15473 z m -9.969544,0.35502 7.175043,3.83955 -0.673031,1.18133 -7.175037,-3.83956 z m 7.317964,3.90312 7.175044,3.83956 -0.673031,1.18132 -7.175037,-3.83956 z m 8.993603,0.98185 6.235896,5.15473 -0.903946,1.02629 -6.235901,-5.15421 z m -1.696433,2.92075 7.175038,3.83956 -0.673026,1.18081 -7.175573,-3.83905 z m 8.020854,2.31304 6.235903,5.15472 -0.09973,0.11317 0.295985,0.15813 -0.67303,1.18133 -7.175045,-3.83956 0.673032,-1.18132 1.464981,0.78393 -1.626041,-1.34411 z" />
      <path
          id="rect32"
          style="stroke-width:0.0398326"
          d="m 140.81111,-10.45042 -1.1e-4,7.9422155 1.34927,1.522e-4 1.1e-4,-7.9422157 z m -0.011,8.0941811 -3.9e-4,7.9426529 1.34955,-2.849e-4 1.1e-4,-7.9422158 z m 6.53958,-7.1189394 -1.59149,7.7815207 1.32206,0.2701008 1.59121,-7.7810836 z m -6.54228,15.1951306 3.2e-4,7.9424917 1.34955,-2.85e-4 -3.2e-4,-7.9424916 z m 4.90937,-7.2674574 -1.5915,7.7815207 1.3225,0.2703763 1.59078,-7.7813591 z m -1.61998,7.9120014 -1.5915,7.7815207 1.32207,0.270101 1.59121,-7.7810838 z m -3.2848,7.4142557 3.3e-4,7.942491 0.14839,7.2e-5 -0.0655,0.320965 1.32178,0.270538 1.59149,-7.781521 -1.32206,-0.2701 -0.32518,1.589714 v -2.072007 z"
          transform="rotate(57.77648)" />
      <path
          id="rect40"
          style="fill:#000000;stroke-width:0.0471779"
          d="m 75.72924,207.99548 -6.528913,7.47992 0.938288,1.2273 6.528907,-7.47992 z m -6.6618,7.61258 -6.528909,7.47994 0.938528,1.2276 6.528907,-7.47992 z m -6.640112,7.60377 -6.528904,7.47992 0.938527,1.22761 6.528906,-7.47992 z m -6.621526,7.59373 -6.529186,7.48024 0.938525,1.22761 6.529187,-7.48023 z" />
      <path
          id="path43"
          style="fill:#000000;stroke-width:0.100026"
          d="m 71.347228,199.32317 c 0,0 -3.026597,6.81462 -0.13484,14.08796 0.01978,-0.0484 0.0367,-0.0965 0.05597,-0.14484 -0.01265,0.0824 -0.02557,0.16489 -0.03707,0.248 6.239946,-5.11354 7.133052,-12.39123 7.133052,-12.39123 0,0 -1.749176,1.35412 -3.53418,3.79861 0.497814,-3.01048 0.196626,-5.18243 0.196626,-5.18243 0,0 -1.42793,1.8168 -2.543777,4.74279 -0.275095,-3.0806 -1.135779,-5.15886 -1.135779,-5.15886 z" />
      <path
          id="path46"
          style="fill:#000000;stroke-width:0.0873082"
          d="m 86.654241,212.44064 c 0,0 -5.228187,4.09361 -6.271704,10.94861 -0.01206,0.0238 -0.02432,0.0471 -0.03623,0.071 6.520974,-2.64499 9.360959,-8.56888 9.360959,-8.56888 0,0 -2.394333,0.89424 -4.955126,3.05059 1.560269,-2.98224 1.902099,-5.50135 1.902099,-5.50135 z" />
      <path
          id="path49"
          style="fill:#000000;stroke-width:0.100026"
          d="m 78.896552,205.51282 c 0,0 -4.392884,6.02511 -3.096476,13.74411 0.02952,-0.0431 0.05619,-0.0866 0.0852,-0.12982 -0.02971,0.0779 -0.0597,0.15582 -0.08843,0.23465 7.176303,-3.68591 9.580919,-10.61268 9.580919,-10.61268 0,0 -1.994967,0.9557 -4.254415,2.96982 1.120189,-2.83831 1.282808,-5.025 1.282808,-5.025 0,0 -1.77828,1.47562 -3.484882,4.10127 0.379344,-3.06951 -0.02472,-5.28235 -0.02472,-5.28235 z" />
      <path
          id="path52"
          style="fill:#000000;stroke-width:0.0917074"
          d="m 66.051979,213.94304 c 0,0 -6.679533,0.29812 -10.246447,5.70754 0.0464,-0.004 0.09103,-0.009 0.137108,-0.0133 -0.06683,0.0235 -0.133895,0.0469 -0.200568,0.0716 7.321525,3.07687 13.093865,0.81321 13.093865,0.81321 0,0 -1.99512,-0.89527 -4.798073,-1.3699 2.46248,-0.82963 3.85483,-1.97732 3.85483,-1.97732 0,0 -2.142144,-0.43698 -4.90325,-0.15623 2.063353,-1.50135 3.062534,-3.07564 3.062534,-3.07564 z" />
      <path
          id="path54"
          style="fill:#000000;stroke-width:0.0873082"
          d="m 91.345606,217.2303 c 0,0 -6.526015,1.22585 -10.609289,6.83003 -0.02167,0.0156 -0.04328,0.0306 -0.06486,0.0463 7.006394,0.65538 12.255468,-3.29497 12.255468,-3.29497 0,0 -2.537137,-0.30892 -5.803283,0.42579 2.758399,-1.92859 4.221974,-4.00722 4.221974,-4.00722 z" />
      <path
          id="path55"
          style="fill:#000000;stroke-width:0.0873082"
          d="m 92.607997,108.40781 c 0,0 -6.526015,1.22585 -10.609289,6.83003 -0.02167,0.0156 -0.04328,0.0306 -0.06486,0.0463 7.006394,0.65538 12.255468,-3.29497 12.255468,-3.29497 0,0 -2.537137,-0.30892 -5.803283,0.42579 2.758399,-1.92859 4.221974,-4.00722 4.221974,-4.00722 z" />
      <path
          id="path56"
          style="fill:#000000;stroke-width:0.0873082"
          d="m 95.423813,114.376 c 0,0 -6.526015,1.22585 -10.609289,6.83003 -0.02167,0.0156 -0.04328,0.0306 -0.06486,0.0463 7.006394,0.65538 12.255468,-3.29497 12.255468,-3.29497 0,0 -2.537137,-0.30892 -5.803283,0.42579 2.758399,-1.92859 4.221974,-4.00722 4.221974,-4.00722 z" />
      <path
          id="path57"
          style="fill:#000000;stroke-width:0.0873082"
          d="m 58.226342,101.03918 c 0,0 -6.526015,1.22585 -10.609289,6.83003 -0.02167,0.0156 -0.04328,0.0306 -0.06486,0.0463 7.006394,0.65538 12.255468,-3.29497 12.255468,-3.29497 0,0 -2.537137,-0.30892 -5.803283,0.42579 2.758399,-1.92859 4.221974,-4.00722 4.221974,-4.00722 z" />
      <path
          id="path58"
          style="fill:#000000;stroke-width:0.0873082"
          d="m 49.239712,97.287827 c 0,0 -3.366847,5.723273 -1.828647,12.484483 -0.0025,0.0266 -0.0054,0.0527 -0.0078,0.0793 5.100175,-4.84843 5.574588,-11.400755 5.574588,-11.400755 0,0 -1.900809,1.708625 -3.49453,4.652705 0.360316,-3.346402 -0.243703,-5.815796 -0.243703,-5.815796 z" />
      <path
          id="path59"
          style="fill:#000000;stroke-width:0.0873082"
          d="m 41.248966,107.84821 c 0,0 -2.710693,6.06166 -0.431432,12.61032 4.65e-4,0.0268 4.79e-4,0.053 10e-4,0.0797 4.530424,-5.38464 4.274527,-11.94912 4.274527,-11.94912 0,0 -1.699385,1.90906 -2.956431,5.01187 -0.0134,-3.36571 -0.887814,-5.75279 -0.887814,-5.75279 z" />
      <path
          id="path60"
          style="fill:#000000;stroke-width:0.0873082"
          d="m 66.973961,114.45884 c 0,0 -4.124632,5.20375 -3.534439,12.11256 -0.0062,0.0261 -0.01263,0.0515 -0.01873,0.0775 5.720607,-4.09802 7.094927,-10.52212 7.094927,-10.52212 0,0 -2.11846,1.42988 -4.103313,4.12579 0.818784,-3.26463 0.561411,-5.79376 0.561411,-5.79376 z" />
      <path
          id="path61"
          style="fill:#000000;stroke-width:0.0873082"
          d="m 80.963329,126.26682 c 0,0 -6.327332,-2.01407 -12.579198,0.98495 -0.0266,0.003 -0.05263,0.006 -0.07911,0.01 5.85858,3.89822 12.352988,2.90804 12.352988,2.90804 0,0 -2.087537,-1.47466 -5.311705,-2.37595 3.342997,-0.39063 5.617002,-1.52713 5.617002,-1.52713 z" />
      <path
          id="path62"
          style="fill:#000000;stroke-width:0.0873082"
          d="m 94.236695,114.39446 c 0,0 -6.327332,-2.01407 -12.579198,0.98495 -0.0266,0.003 -0.05263,0.006 -0.07911,0.01 5.85858,3.89822 12.352988,2.90804 12.352988,2.90804 0,0 -2.087537,-1.47466 -5.311705,-2.37595 3.342997,-0.39063 5.617002,-1.52713 5.617002,-1.52713 z" />
      <path
          id="path63"
          style="fill:#000000;stroke-width:0.0873082"
          d="m 98.659438,120.55884 c 0,0 -6.327332,-2.01407 -12.579198,0.98495 -0.0266,0.003 -0.05263,0.006 -0.07911,0.01 5.85858,3.89822 12.352988,2.90804 12.352988,2.90804 0,0 -2.087537,-1.47466 -5.311705,-2.37595 3.342997,-0.39063 5.617002,-1.52713 5.617002,-1.52713 z" />
      <path
          id="path65"
          style="fill:#000000;stroke-width:0.0873082"
          d="m 87.35811,225.8356 c 0,0 -6.327332,-2.01407 -12.579198,0.98495 -0.0266,0.003 -0.05263,0.006 -0.07911,0.01 5.85858,3.89822 12.352988,2.90804 12.352988,2.90804 0,0 -2.087537,-1.47466 -5.311705,-2.37595 3.342997,-0.39063 5.617002,-1.52713 5.617002,-1.52713 z" />
      <path
          id="path66"
          style="fill:#000000;stroke-width:0.0873082"
          d="m 71.372749,233.54921 c 0,0 -6.327332,-2.01407 -12.579198,0.98495 -0.0266,0.003 -0.05263,0.006 -0.07911,0.01 5.85858,3.89822 12.352988,2.90804 12.352988,2.90804 0,0 -2.087537,-1.47466 -5.311705,-2.37595 3.342997,-0.39063 5.617002,-1.52713 5.617002,-1.52713 z" />
      <path
          id="path67"
          style="fill:#000000;stroke-width:0.100026"
          d="m 85.19911,209.22081 c 0,0 -6.941642,2.72268 -9.994178,9.93002 0.04805,-0.0205 0.09391,-0.0428 0.141596,-0.0637 -0.0669,0.0497 -0.134053,0.0993 -0.200627,0.15043 8.033025,0.74549 13.781862,-3.80569 13.781862,-3.80569 0,0 -2.196091,-0.26542 -5.183776,0.2199 2.469409,-1.79245 3.781102,-3.54957 3.781102,-3.54957 0,0 -2.292576,0.28953 -5.1424,1.58761 1.968685,-2.38538 2.816425,-4.46896 2.816425,-4.46896 z" />
      <path
          id="path68"
          style="fill:#000000;stroke-width:0.0873082"
          d="m 51.099923,232.03763 c 0,0 -6.327332,-2.01407 -12.579198,0.98495 -0.0266,0.003 -0.05263,0.006 -0.07911,0.01 5.85858,3.89822 12.352988,2.90804 12.352988,2.90804 0,0 -2.087537,-1.47466 -5.311705,-2.37595 3.342997,-0.39063 5.617002,-1.52713 5.617002,-1.52713 z" />
      <path
          id="path70"
          style="fill:#000000;stroke-width:0.0873082"
          d="m 3.6615552,167.50237 c 0,0 5.7534578,3.31502 12.5004938,1.71581 0.02663,0.003 0.0527,0.005 0.07943,0.007 -4.894307,-5.05616 -11.4506314,-5.47138 -11.4506314,-5.47138 0,0 1.7257127,1.8853 4.6840701,3.45237 -3.3495187,-0.33007 -5.8133542,0.29622 -5.8133542,0.29622 z" />
      <path
          id="path71"
          style="fill:#000000;stroke-width:0.0873082"
          d="m 7.3459166,158.95832 c 0,0 4.7578434,4.63191 11.6908674,4.74657 0.02507,0.009 0.04984,0.0179 0.07525,0.0264 -3.495717,-6.10728 -9.7469764,-8.12708 -9.7469764,-8.12708 0,0 1.2072854,2.25276 3.6876234,4.5012 -3.1645705,-1.14617 -5.7067593,-1.14705 -5.7067593,-1.14705 z" />
      <path
          id="path72"
          style="fill:#000000;stroke-width:0.0873082"
          d="m 12.204072,153.16028 c 0,0 1.045749,6.55729 6.535421,10.79327 0.01472,0.0222 0.02926,0.0441 0.04455,0.0661 0.847965,-6.98569 -2.956383,-12.34151 -2.956383,-12.34151 0,0 -0.378654,2.52767 0.265882,5.81281 -1.85194,-2.81044 -3.889488,-4.33067 -3.889488,-4.33067 z" />
      <path
          id="path73"
          style="fill:#000000;stroke-width:0.0873082"
          d="m 9.0785684,159.2013 c 0,0 1.0457486,6.55729 6.5354206,10.79327 0.01472,0.0222 0.02926,0.0441 0.04455,0.0661 0.847965,-6.98569 -2.956383,-12.34151 -2.956383,-12.34151 0,0 -0.378654,2.52767 0.265882,5.81281 -1.85194,-2.81044 -3.8894876,-4.33067 -3.8894876,-4.33067 z" />
      <path
          id="path74"
          style="fill:#000000;stroke-width:0.0873082"
          d="m 30.162262,167.8587 c 0,0 1.045748,6.55729 6.53542,10.79327 0.01472,0.0222 0.02926,0.0441 0.04455,0.0661 0.847965,-6.98569 -2.956383,-12.34151 -2.956383,-12.34151 0,0 -0.378654,2.52767 0.265882,5.81281 -1.85194,-2.81044 -3.889487,-4.33067 -3.889487,-4.33067 z" />
      <path
          id="path75"
          style="fill:#000000;stroke-width:0.0873082"
          d="m 10.304779,176.61776 c 0,0 6.626499,0.42562 11.968525,-3.9951 0.0249,-0.009 0.04947,-0.0188 0.07429,-0.0289 -6.626864,-2.36719 -12.6896253,0.16279 -12.6896253,0.16279 0,0 2.3819993,0.9266 5.7284053,1.02217 -3.149575,1.18678 -5.081604,2.83903 -5.081604,2.83903 z" />
      <path
          id="path76"
          style="fill:#000000;stroke-width:0.0873082"
          d="m 81.586389,202.76408 c 0,0 -5.941839,2.96414 -8.336498,9.47148 -0.017,0.0207 -0.03357,0.041 -0.04978,0.0623 6.918462,-1.28607 10.886821,-6.52152 10.886821,-6.52152 0,0 -2.52487,0.39683 -5.465505,1.9969 2.125676,-2.60954 2.964876,-5.00922 2.964876,-5.00922 z" />
      <rect
          style="fill:#000000;stroke-width:0.264583"
          id="rect5"
          width="8.9630928"
          height="52.756264"
          x="59.19854"
          y="71.558647"
          transform="rotate(5.529734)" />
    </g>
  </svg>