<svg
				width="100%"
				viewBox="0 0 131.50101 100.884"
				class="menuSvg"
				version="1.1"
				id="svg1"
				sodipodi:docname="bambooMenu.svg"
				inkscape:version="1.3.2 (091e20ef0f, 2023-11-25, custom)"
				xmlns:inkscape="http://www.inkscape.org/namespaces/inkscape"
				xmlns:sodipodi="http://sodipodi.sourceforge.net/DTD/sodipodi-0.dtd"
				xmlns="http://www.w3.org/2000/svg"
				xmlns:svg="http://www.w3.org/2000/svg">
				<defs
					id="defs1" />
				<g
					id="layer1"
					transform="matrix(0.85686479,0,0,1.326112,-21.596976,-125.13655)">
					<path
						id="rect2"
						style="fill:#4b7044;stroke-width:0.153944"
						d="m 50.171528,122.35243 c 16.703985,0.25563 54.149782,0 54.149782,0 0,0 37.49882,-0.10557 54.14979,0 3.56384,0.0226 -2.15677,3.13947 -2.07146,10.34258 0.075,6.33269 5.37011,9.95764 2.07146,9.94803 -16.10466,-0.0469 -54.14979,0 -54.14979,0 0,0 -36.420867,0.0881 -54.149782,0 -3.41429,-0.017 3.308835,-3.67085 3.306763,-10.05948 -0.0024,-7.44316 -6.781452,-10.2843 -3.306763,-10.23113 z"
						sodipodi:nodetypes="ccssscccc" />
					<path
						id="rect3"
						style="fill:#4b7044;stroke-width:0.153944"
						d="m 50.171528,99.558746 c 29.77592,-0.06418 84.044362,0.467484 108.299572,0 3.65501,-0.07045 -3.10193,3.402304 -3.23488,10.794614 -0.11075,6.15764 6.454,9.50134 3.23488,9.49599 -24.97575,-0.0415 -74.848707,0.0297 -108.299572,0 -3.226466,-0.003 2.423641,-2.90282 2.744424,-9.68766 0.358302,-7.57842 -6.339971,-10.595194 -2.744424,-10.602944 z"
						sodipodi:nodetypes="sssscss" />
					<path
						id="rect4"
						style="fill:#4b7044;stroke-width:0.153944"
						d="m 50.171528,145.14612 c 26.416867,0.0447 78.646762,-0.27571 108.299572,0 3.44612,0.032 -2.74925,4.28325 -2.75007,10.22841 -9.8e-4,7.20946 6.14146,10.08472 2.75007,10.0622 -29.5218,-0.19607 -79.361384,-0.0924 -108.299572,0 -3.403295,0.0109 3.387464,-0.96403 3.258042,-10.11705 -0.107515,-7.60364 -6.661347,-10.17931 -3.258042,-10.17356 z"
						sodipodi:nodetypes="ccsccsc" />
				</g>
			</svg>